M48
INCH
T01C0.0191
T02C0.028
T03C0.0315
T04C0.0354
T05C0.038
T06C0.0394
T07C0.0433
T08C0.0669
T09C0.0787
T10C0.1024
T11C0.1575
%
T01
X+025937Y+033807
X+025437Y+033307
X+024937Y+033807
X+025437Y+034432
T02
X+039437Y+034307
X+038437Y+034307
X+038937Y+013307
X+039937Y+013307
T03
X+029437Y+030307
X+028453Y+030307
X+028453Y+016807
X+029437Y+016807
T04
X+022437Y+023307
X+022437Y+025307
X+019437Y+025307
X+019437Y+023307
T05
X+035437Y+037807
X+039437Y+037807
X+039937Y+009807
X+035937Y+009807
T06
X+021437Y+030807
X+020437Y+030807
X+015937Y+030807
X+015937Y+027807
X+012937Y+025307
X+012937Y+022307
X+015937Y+020807
X+015937Y+017807
X+020937Y+015807
X+021937Y+015807
T07
X+019437Y+036807
X+022390Y+036807
X+029437Y+036307
X+030437Y+036307
X+031437Y+036307
X+031437Y+011307
X+030437Y+011307
X+029437Y+011307
X+022890Y+010307
X+019937Y+010307
T08
X+006984Y+036854
X+012890Y+036854
X+012843Y+010307
X+006937Y+010307
T09
X+007437Y+030937
X+007437Y+026937
X+007437Y+020437
X+007437Y+016437
X+038937Y+019807
X+038937Y+023807
X+038937Y+027807
T10
X+009937Y+036854
X+009890Y+010307
T11
X+005906Y+041339
X+005906Y+005906
X+041339Y+005906
X+041339Y+041339
T00
M30
