G04 DipTrace 2.4.0.2*
%INpsv1.GTO*%
%MOIN*%
%ADD10C,0.0098*%
%ADD71C,0.0077*%
%ADD72C,0.0154*%
%ADD73C,0.0124*%
%FSLAX44Y44*%
G04*
G70*
G90*
G75*
G01*
%LNTopSilk*%
%LPD*%
X17272Y36807D2*
D10*
G02X17272Y36807I3642J0D01*
G01*
X18179Y36689D2*
Y36925D1*
X18061Y36807D2*
X18297D1*
X17772Y10307D2*
G02X17772Y10307I3642J0D01*
G01*
X18679Y10189D2*
Y10425D1*
X18561Y10307D2*
X18797D1*
X20238Y30207D2*
X21636D1*
X20238Y31407D2*
X21636D1*
Y30207D2*
G03X21636Y31407I1J600D01*
G01*
X20238D2*
G03X20238Y30207I-1J-600D01*
G01*
X19874Y30689D2*
Y30925D1*
X19756Y30807D2*
X19992D1*
X20738Y15207D2*
X22136D1*
X20738Y16407D2*
X22136D1*
Y15207D2*
G03X22136Y16407I1J600D01*
G01*
X20738D2*
G03X20738Y15207I-1J-600D01*
G01*
X20374Y15689D2*
Y15925D1*
X20256Y15807D2*
X20492D1*
X27665Y30307D2*
G02X27665Y30307I1280J0D01*
G01*
X29969Y30425D2*
Y30189D1*
X30087Y30307D2*
X29850D1*
X27665Y16807D2*
G02X27665Y16807I1280J0D01*
G01*
X27921Y16689D2*
Y16925D1*
X27803Y16807D2*
X28039D1*
X15337Y31009D2*
Y27605D1*
X16537Y31009D2*
Y27605D1*
X15337D2*
G03X16537Y27605I600J2D01*
G01*
Y31009D2*
G03X15337Y31009I-600J-2D01*
G01*
Y21009D2*
Y17605D1*
X16537Y21009D2*
Y17605D1*
X15337D2*
G03X16537Y17605I600J2D01*
G01*
Y21009D2*
G03X15337Y21009I-600J-2D01*
G01*
X12337Y25509D2*
Y22105D1*
X13537Y25509D2*
Y22105D1*
X12337D2*
G03X13537Y22105I600J2D01*
G01*
Y25509D2*
G03X12337Y25509I-600J-2D01*
G01*
X22000Y26079D2*
X19874D1*
X22000D2*
Y22535D1*
X19874Y26079D2*
Y22535D1*
X22000D2*
X21173D1*
X20701D2*
X19874D1*
X20573Y23357D2*
G02X20313Y23357I-130J77D01*
G01*
X21724Y23205D2*
Y23441D1*
X21606Y23323D2*
X21843D1*
X21803Y25291D2*
X21528D1*
X21173Y22535D2*
G03X20701Y22575I-238J-2D01*
G01*
X20313Y23357D2*
G03X20110Y23323I-98J-34D01*
G01*
X20494Y25326D2*
G02X20234Y25326I-130J75D01*
G01*
G03X20031Y25291I-98J-35D01*
G01*
X37937Y33558D2*
Y35056D1*
X37939Y33555D2*
G03X37939Y35059I998J752D01*
G01*
X38437Y12558D2*
Y14056D1*
X38439Y12555D2*
G03X38439Y14059I998J752D01*
G01*
X5409Y35083D2*
X14465D1*
Y38626D1*
X5409D1*
Y35083D1*
X5362Y8535D2*
X14417D1*
Y12079D1*
X5362D1*
Y8535D1*
X9437Y32937D2*
X5437D1*
Y24937D1*
X9437D1*
Y32937D1*
Y22437D2*
X5437D1*
Y14437D1*
X9437D1*
Y22437D1*
X40937Y29807D2*
X36937D1*
Y17807D1*
X40937D1*
Y29807D1*
X38435Y37307D2*
X36439D1*
Y38307D2*
Y37307D1*
X38435Y38307D2*
X36439D1*
X38435D2*
Y37307D1*
X36939Y10307D2*
X38935D1*
Y9307D2*
Y10307D1*
X36939Y9307D2*
X38935D1*
X36939D2*
Y10307D1*
X28469Y37370D2*
X32406D1*
Y35598D1*
X28469D1*
Y37370D1*
Y37016D2*
X32406D1*
Y10244D2*
X28469D1*
Y12016D1*
X32406D1*
Y10244D1*
Y10598D2*
X28469D1*
X20956Y41062D2*
D71*
X20932Y41109D1*
X20884Y41157D1*
X20836Y41181D1*
X20741D1*
X20692Y41157D1*
X20645Y41109D1*
X20621Y41062D1*
X20597Y40990D1*
Y40870D1*
X20621Y40799D1*
X20645Y40750D1*
X20692Y40703D1*
X20741Y40679D1*
X20836D1*
X20884Y40703D1*
X20932Y40750D1*
X20956Y40799D1*
X21110Y41085D2*
X21158Y41109D1*
X21230Y41180D1*
Y40679D1*
X21348Y14562D2*
X21324Y14609D1*
X21276Y14657D1*
X21229Y14681D1*
X21133D1*
X21085Y14657D1*
X21037Y14609D1*
X21013Y14562D1*
X20989Y14490D1*
Y14370D1*
X21013Y14299D1*
X21037Y14250D1*
X21085Y14203D1*
X21133Y14179D1*
X21229D1*
X21276Y14203D1*
X21324Y14250D1*
X21348Y14299D1*
X21527Y14561D2*
Y14585D1*
X21551Y14633D1*
X21574Y14657D1*
X21622Y14680D1*
X21718D1*
X21766Y14657D1*
X21789Y14633D1*
X21814Y14585D1*
Y14537D1*
X21789Y14489D1*
X21742Y14418D1*
X21502Y14179D1*
X21837D1*
X20872Y32020D2*
X20848Y32067D1*
X20800Y32116D1*
X20752Y32139D1*
X20657D1*
X20609Y32116D1*
X20561Y32067D1*
X20537Y32020D1*
X20513Y31948D1*
Y31828D1*
X20537Y31757D1*
X20561Y31709D1*
X20609Y31661D1*
X20657Y31637D1*
X20752D1*
X20800Y31661D1*
X20848Y31709D1*
X20872Y31757D1*
X21074Y32139D2*
X21337D1*
X21194Y31948D1*
X21265D1*
X21313Y31924D1*
X21337Y31900D1*
X21361Y31828D1*
Y31781D1*
X21337Y31709D1*
X21289Y31661D1*
X21217Y31637D1*
X21145D1*
X21074Y31661D1*
X21050Y31685D1*
X21026Y31733D1*
X21360Y17020D2*
X21336Y17067D1*
X21288Y17116D1*
X21240Y17139D1*
X21145D1*
X21097Y17116D1*
X21049Y17067D1*
X21025Y17020D1*
X21001Y16948D1*
Y16828D1*
X21025Y16757D1*
X21049Y16709D1*
X21097Y16661D1*
X21145Y16637D1*
X21240D1*
X21288Y16661D1*
X21336Y16709D1*
X21360Y16757D1*
X21754Y16637D2*
Y17139D1*
X21514Y16804D1*
X21873D1*
X28880Y32199D2*
X28856Y32247D1*
X28808Y32295D1*
X28760Y32319D1*
X28665D1*
X28616Y32295D1*
X28569Y32247D1*
X28545Y32199D1*
X28521Y32128D1*
Y32008D1*
X28545Y31936D1*
X28569Y31888D1*
X28616Y31841D1*
X28665Y31816D1*
X28760D1*
X28808Y31841D1*
X28856Y31888D1*
X28880Y31936D1*
X29321Y32318D2*
X29082D1*
X29058Y32103D1*
X29082Y32127D1*
X29154Y32151D1*
X29225D1*
X29297Y32127D1*
X29345Y32080D1*
X29369Y32008D1*
Y31960D1*
X29345Y31888D1*
X29297Y31840D1*
X29225Y31816D1*
X29154D1*
X29082Y31840D1*
X29058Y31865D1*
X29034Y31912D1*
X28892Y18699D2*
X28868Y18747D1*
X28820Y18795D1*
X28772Y18819D1*
X28677D1*
X28629Y18795D1*
X28581Y18747D1*
X28557Y18699D1*
X28533Y18628D1*
Y18508D1*
X28557Y18436D1*
X28581Y18388D1*
X28629Y18341D1*
X28677Y18316D1*
X28772D1*
X28820Y18341D1*
X28868Y18388D1*
X28892Y18436D1*
X29333Y18747D2*
X29309Y18795D1*
X29237Y18818D1*
X29190D1*
X29118Y18795D1*
X29070Y18723D1*
X29046Y18603D1*
Y18484D1*
X29070Y18388D1*
X29118Y18340D1*
X29190Y18316D1*
X29214D1*
X29285Y18340D1*
X29333Y18388D1*
X29357Y18460D1*
Y18484D1*
X29333Y18556D1*
X29285Y18603D1*
X29214Y18627D1*
X29190D1*
X29118Y18603D1*
X29070Y18556D1*
X29046Y18484D1*
X15872Y32220D2*
X15848Y32267D1*
X15800Y32316D1*
X15752Y32339D1*
X15657D1*
X15609Y32316D1*
X15561Y32267D1*
X15537Y32220D1*
X15513Y32148D1*
Y32028D1*
X15537Y31957D1*
X15561Y31909D1*
X15609Y31861D1*
X15657Y31837D1*
X15752D1*
X15800Y31861D1*
X15848Y31909D1*
X15872Y31957D1*
X16122Y31837D2*
X16361Y32339D1*
X16026D1*
X15872Y22220D2*
X15848Y22267D1*
X15800Y22316D1*
X15753Y22339D1*
X15657D1*
X15609Y22316D1*
X15561Y22267D1*
X15537Y22220D1*
X15513Y22148D1*
Y22028D1*
X15537Y21957D1*
X15561Y21909D1*
X15609Y21861D1*
X15657Y21837D1*
X15753D1*
X15800Y21861D1*
X15848Y21909D1*
X15872Y21957D1*
X16146Y22339D2*
X16074Y22315D1*
X16050Y22267D1*
Y22219D1*
X16074Y22172D1*
X16122Y22148D1*
X16218Y22124D1*
X16289Y22100D1*
X16337Y22052D1*
X16361Y22004D1*
Y21933D1*
X16337Y21885D1*
X16313Y21861D1*
X16241Y21837D1*
X16146D1*
X16074Y21861D1*
X16050Y21885D1*
X16026Y21933D1*
Y22004D1*
X16050Y22052D1*
X16098Y22100D1*
X16170Y22124D1*
X16265Y22148D1*
X16313Y22172D1*
X16337Y22219D1*
Y22267D1*
X16313Y22315D1*
X16241Y22339D1*
X16146D1*
X12884Y26720D2*
X12860Y26767D1*
X12812Y26816D1*
X12764Y26839D1*
X12669D1*
X12620Y26816D1*
X12573Y26767D1*
X12549Y26720D1*
X12525Y26648D1*
Y26528D1*
X12549Y26457D1*
X12573Y26409D1*
X12620Y26361D1*
X12669Y26337D1*
X12764D1*
X12812Y26361D1*
X12860Y26409D1*
X12884Y26457D1*
X13349Y26672D2*
X13325Y26600D1*
X13277Y26552D1*
X13205Y26528D1*
X13182D1*
X13110Y26552D1*
X13062Y26600D1*
X13038Y26672D1*
Y26696D1*
X13062Y26767D1*
X13110Y26815D1*
X13182Y26839D1*
X13205D1*
X13277Y26815D1*
X13325Y26767D1*
X13349Y26672D1*
Y26552D1*
X13325Y26433D1*
X13277Y26361D1*
X13205Y26337D1*
X13158D1*
X13086Y26361D1*
X13062Y26409D1*
X20632Y26811D2*
Y26309D1*
X20800D1*
X20872Y26333D1*
X20920Y26380D1*
X20944Y26429D1*
X20967Y26500D1*
Y26620D1*
X20944Y26692D1*
X20920Y26739D1*
X20872Y26787D1*
X20800Y26811D1*
X20632D1*
X21122Y26715D2*
X21170Y26739D1*
X21242Y26810D1*
Y26309D1*
X38650Y36289D2*
Y35787D1*
X38817D1*
X38889Y35811D1*
X38937Y35859D1*
X38961Y35907D1*
X38985Y35978D1*
Y36098D1*
X38961Y36170D1*
X38937Y36217D1*
X38889Y36265D1*
X38817Y36289D1*
X38650D1*
X39164Y36169D2*
Y36193D1*
X39187Y36241D1*
X39211Y36265D1*
X39259Y36289D1*
X39355D1*
X39402Y36265D1*
X39426Y36241D1*
X39450Y36193D1*
Y36145D1*
X39426Y36097D1*
X39379Y36026D1*
X39139Y35787D1*
X39474D1*
X39150Y15289D2*
Y14787D1*
X39317D1*
X39389Y14811D1*
X39437Y14859D1*
X39461Y14907D1*
X39485Y14978D1*
Y15098D1*
X39461Y15170D1*
X39437Y15217D1*
X39389Y15265D1*
X39317Y15289D1*
X39150D1*
X39687D2*
X39950D1*
X39807Y15097D1*
X39879D1*
X39926Y15074D1*
X39950Y15050D1*
X39974Y14978D1*
Y14930D1*
X39950Y14859D1*
X39902Y14810D1*
X39831Y14787D1*
X39759D1*
X39687Y14810D1*
X39664Y14835D1*
X39639Y14882D1*
X9955Y39358D2*
X9644D1*
Y38856D1*
Y39119D2*
X9835D1*
X10110Y39262D2*
X10158Y39286D1*
X10230Y39358D1*
Y38856D1*
X9801Y12811D2*
X9490D1*
Y12309D1*
Y12572D2*
X9681D1*
X9979Y12691D2*
Y12715D1*
X10003Y12763D1*
X10027Y12787D1*
X10075Y12810D1*
X10171D1*
X10218Y12787D1*
X10242Y12763D1*
X10266Y12715D1*
Y12667D1*
X10242Y12619D1*
X10194Y12548D1*
X9955Y12309D1*
X10290D1*
X8420Y33669D2*
Y33287D1*
X8396Y33215D1*
X8371Y33191D1*
X8324Y33167D1*
X8276D1*
X8228Y33191D1*
X8205Y33215D1*
X8180Y33287D1*
Y33334D1*
X8574Y33573D2*
X8622Y33597D1*
X8694Y33669D1*
Y33167D1*
X8312Y23169D2*
Y22787D1*
X8288Y22715D1*
X8264Y22691D1*
X8216Y22667D1*
X8168D1*
X8121Y22691D1*
X8097Y22715D1*
X8073Y22787D1*
Y22834D1*
X8491Y23049D2*
Y23073D1*
X8514Y23121D1*
X8538Y23145D1*
X8586Y23169D1*
X8682D1*
X8729Y23145D1*
X8753Y23121D1*
X8778Y23073D1*
Y23026D1*
X8753Y22977D1*
X8706Y22906D1*
X8466Y22667D1*
X8801D1*
X39812Y30539D2*
Y30157D1*
X39788Y30085D1*
X39764Y30061D1*
X39716Y30037D1*
X39668D1*
X39621Y30061D1*
X39597Y30085D1*
X39573Y30157D1*
Y30204D1*
X40014Y30539D2*
X40277D1*
X40134Y30348D1*
X40206D1*
X40253Y30324D1*
X40277Y30300D1*
X40301Y30228D1*
Y30181D1*
X40277Y30109D1*
X40229Y30061D1*
X40158Y30037D1*
X40086D1*
X40014Y30061D1*
X39991Y30085D1*
X39966Y30133D1*
X37132Y38800D2*
X37347D1*
X37419Y38824D1*
X37444Y38848D1*
X37467Y38896D1*
Y38944D1*
X37444Y38991D1*
X37419Y39016D1*
X37347Y39039D1*
X37132D1*
Y38537D1*
X37300Y38800D2*
X37467Y38537D1*
X37622Y38943D2*
X37670Y38967D1*
X37742Y39039D1*
Y38537D1*
X37525Y10800D2*
X37740D1*
X37812Y10824D1*
X37836Y10848D1*
X37860Y10896D1*
Y10944D1*
X37836Y10991D1*
X37812Y11016D1*
X37740Y11039D1*
X37525D1*
Y10537D1*
X37692Y10800D2*
X37860Y10537D1*
X38039Y10919D2*
Y10943D1*
X38062Y10991D1*
X38086Y11015D1*
X38134Y11039D1*
X38230D1*
X38277Y11015D1*
X38301Y10991D1*
X38325Y10943D1*
Y10896D1*
X38301Y10848D1*
X38254Y10776D1*
X38014Y10537D1*
X38349D1*
X29154Y38102D2*
Y37600D1*
X29441D1*
X29978D2*
Y38102D1*
X29787Y37600D1*
X29596Y38102D1*
Y37600D1*
X30228D2*
X30467Y38102D1*
X30132D1*
X30741D2*
X30670Y38078D1*
X30645Y38030D1*
Y37982D1*
X30670Y37935D1*
X30717Y37911D1*
X30813Y37887D1*
X30885Y37863D1*
X30932Y37815D1*
X30956Y37767D1*
Y37696D1*
X30932Y37648D1*
X30909Y37624D1*
X30837Y37600D1*
X30741D1*
X30670Y37624D1*
X30645Y37648D1*
X30622Y37696D1*
Y37767D1*
X30645Y37815D1*
X30694Y37863D1*
X30765Y37887D1*
X30860Y37911D1*
X30909Y37935D1*
X30932Y37982D1*
Y38030D1*
X30909Y38078D1*
X30837Y38102D1*
X30741D1*
X31110Y38006D2*
X31159Y38030D1*
X31230Y38102D1*
Y37600D1*
X31672Y38102D2*
X31433D1*
X31409Y37887D1*
X31433Y37911D1*
X31505Y37935D1*
X31576D1*
X31648Y37911D1*
X31696Y37863D1*
X31720Y37791D1*
Y37744D1*
X31696Y37672D1*
X31648Y37624D1*
X31576Y37600D1*
X31505D1*
X31433Y37624D1*
X31409Y37648D1*
X31385Y37696D1*
X29166Y12748D2*
Y12246D1*
X29453D1*
X29990D2*
Y12748D1*
X29798Y12246D1*
X29607Y12748D1*
Y12246D1*
X30240D2*
X30479Y12747D1*
X30144D1*
X30944Y12581D2*
X30920Y12509D1*
X30873Y12461D1*
X30801Y12437D1*
X30777D1*
X30705Y12461D1*
X30658Y12509D1*
X30633Y12581D1*
Y12604D1*
X30658Y12676D1*
X30705Y12724D1*
X30777Y12747D1*
X30801D1*
X30873Y12724D1*
X30920Y12676D1*
X30944Y12581D1*
Y12461D1*
X30920Y12341D1*
X30873Y12269D1*
X30801Y12246D1*
X30753D1*
X30681Y12269D1*
X30658Y12317D1*
X31099Y12652D2*
X31147Y12676D1*
X31219Y12747D1*
Y12246D1*
X31660Y12747D2*
X31421D1*
X31398Y12532D1*
X31421Y12556D1*
X31493Y12581D1*
X31564D1*
X31636Y12556D1*
X31684Y12509D1*
X31708Y12437D1*
Y12389D1*
X31684Y12317D1*
X31636Y12269D1*
X31564Y12246D1*
X31493D1*
X31421Y12269D1*
X31398Y12294D1*
X31373Y12341D1*
X8437Y6045D2*
D72*
Y5040D1*
X8772D1*
X8916Y5089D1*
X9012Y5184D1*
X9059Y5280D1*
X9107Y5423D1*
Y5663D1*
X9059Y5806D1*
X9012Y5901D1*
X8916Y5998D1*
X8772Y6045D1*
X8437D1*
X9416Y5710D2*
Y5232D1*
X9463Y5089D1*
X9559Y5040D1*
X9703D1*
X9798Y5089D1*
X9942Y5232D1*
Y5710D2*
Y5040D1*
X10824Y5710D2*
Y5040D1*
Y5566D2*
X10729Y5663D1*
X10633Y5710D1*
X10490D1*
X10394Y5663D1*
X10299Y5566D1*
X10251Y5423D1*
Y5328D1*
X10299Y5184D1*
X10394Y5089D1*
X10490Y5040D1*
X10633D1*
X10729Y5089D1*
X10824Y5184D1*
X11133Y6045D2*
Y5040D1*
X12414Y5566D2*
X12844D1*
X12988Y5615D1*
X13036Y5663D1*
X13084Y5758D1*
Y5854D1*
X13036Y5949D1*
X12988Y5998D1*
X12844Y6045D1*
X12414D1*
Y5040D1*
X12749Y5566D2*
X13084Y5040D1*
X13966Y5710D2*
Y5040D1*
Y5566D2*
X13871Y5663D1*
X13775Y5710D1*
X13632D1*
X13536Y5663D1*
X13441Y5566D1*
X13393Y5423D1*
Y5328D1*
X13441Y5184D1*
X13536Y5089D1*
X13632Y5040D1*
X13775D1*
X13871Y5089D1*
X13966Y5184D1*
X14275Y6045D2*
X14323Y5998D1*
X14371Y6045D1*
X14323Y6094D1*
X14275Y6045D1*
X14323Y5710D2*
Y5040D1*
X14680Y6045D2*
Y5040D1*
X15961Y5519D2*
X16392D1*
X16534Y5566D1*
X16583Y5615D1*
X16631Y5710D1*
Y5854D1*
X16583Y5949D1*
X16534Y5998D1*
X16392Y6045D1*
X15961D1*
Y5040D1*
X17178Y5710D2*
X17083Y5663D1*
X16987Y5566D1*
X16939Y5423D1*
Y5328D1*
X16987Y5184D1*
X17083Y5089D1*
X17178Y5040D1*
X17322D1*
X17418Y5089D1*
X17513Y5184D1*
X17562Y5328D1*
Y5423D1*
X17513Y5566D1*
X17418Y5663D1*
X17322Y5710D1*
X17178D1*
X17871D2*
X18062Y5040D1*
X18253Y5710D1*
X18444Y5040D1*
X18635Y5710D1*
X18944Y5423D2*
X19518D1*
Y5519D1*
X19470Y5615D1*
X19423Y5663D1*
X19327Y5710D1*
X19183D1*
X19088Y5663D1*
X18992Y5566D1*
X18944Y5423D1*
Y5328D1*
X18992Y5184D1*
X19088Y5089D1*
X19183Y5040D1*
X19327D1*
X19423Y5089D1*
X19518Y5184D1*
X19827Y5710D2*
Y5040D1*
Y5423D2*
X19875Y5566D1*
X19970Y5663D1*
X20067Y5710D1*
X20210D1*
X22161Y5901D2*
X22066Y5998D1*
X21922Y6045D1*
X21731D1*
X21587Y5998D1*
X21491Y5901D1*
Y5806D1*
X21540Y5710D1*
X21587Y5663D1*
X21682Y5615D1*
X21970Y5519D1*
X22066Y5471D1*
X22113Y5423D1*
X22161Y5328D1*
Y5184D1*
X22066Y5089D1*
X21922Y5040D1*
X21731D1*
X21587Y5089D1*
X21491Y5184D1*
X22470Y5710D2*
Y5232D1*
X22517Y5089D1*
X22613Y5040D1*
X22757D1*
X22852Y5089D1*
X22996Y5232D1*
Y5710D2*
Y5040D1*
X23305Y5710D2*
Y4705D1*
Y5566D2*
X23401Y5662D1*
X23496Y5710D1*
X23640D1*
X23736Y5662D1*
X23831Y5566D1*
X23880Y5423D1*
Y5327D1*
X23831Y5184D1*
X23736Y5088D1*
X23640Y5040D1*
X23496D1*
X23401Y5088D1*
X23305Y5184D1*
X24188Y5710D2*
Y4705D1*
Y5566D2*
X24284Y5662D1*
X24380Y5710D1*
X24523D1*
X24619Y5662D1*
X24714Y5566D1*
X24763Y5423D1*
Y5327D1*
X24714Y5184D1*
X24619Y5088D1*
X24523Y5040D1*
X24380D1*
X24284Y5088D1*
X24188Y5184D1*
X25072Y6045D2*
Y5040D1*
X25429Y5710D2*
X25716Y5040D1*
X25621Y4849D1*
X25524Y4753D1*
X25429Y4705D1*
X25381D1*
X26003Y5710D2*
X25716Y5040D1*
X28256Y5710D2*
X28543Y5040D1*
X28830Y5710D1*
X29138Y5853D2*
X29235Y5901D1*
X29378Y6044D1*
Y5040D1*
X10362Y30262D2*
D73*
X11166Y30569D1*
X10362Y30875D1*
X10630Y30760D2*
Y30377D1*
X10975Y29441D2*
X11051Y29480D1*
X11128Y29556D1*
X11166Y29632D1*
Y29785D1*
X11128Y29862D1*
X11051Y29938D1*
X10975Y29977D1*
X10860Y30015D1*
X10668D1*
X10554Y29977D1*
X10477Y29938D1*
X10401Y29862D1*
X10362Y29785D1*
Y29632D1*
X10401Y29556D1*
X10477Y29480D1*
X10554Y29441D1*
X11166Y28417D2*
X10362D1*
X11166Y27634D2*
X10362D1*
X11166Y28170D1*
X10362D1*
Y19762D2*
X11166Y20069D1*
X10362Y20375D1*
X10630Y20260D2*
Y19877D1*
X10975Y18941D2*
X11051Y18980D1*
X11128Y19056D1*
X11166Y19132D1*
Y19285D1*
X11128Y19362D1*
X11051Y19438D1*
X10975Y19477D1*
X10860Y19515D1*
X10668D1*
X10554Y19477D1*
X10477Y19438D1*
X10401Y19362D1*
X10362Y19285D1*
Y19132D1*
X10401Y19056D1*
X10477Y18980D1*
X10554Y18941D1*
X11166Y17917D2*
X10362D1*
X11166Y17134D2*
X10362D1*
X11166Y17670D1*
X10362D1*
X42608Y27839D2*
X41919D1*
X42263Y28183D2*
Y27494D1*
X42475Y24340D2*
X42551Y24378D1*
X42628Y24455D1*
X42666Y24531D1*
Y24684D1*
X42628Y24761D1*
X42551Y24837D1*
X42475Y24876D1*
X42360Y24914D1*
X42168D1*
X42054Y24876D1*
X41977Y24837D1*
X41901Y24761D1*
X41862Y24684D1*
Y24531D1*
X41901Y24455D1*
X41977Y24378D1*
X42054Y24340D1*
X42168D1*
Y24531D1*
X42666Y23557D2*
X41862D1*
X42666Y24093D1*
X41862D1*
X42666Y23310D2*
X41862D1*
Y23042D1*
X41901Y22927D1*
X41977Y22850D1*
X42054Y22812D1*
X42168Y22774D1*
X42360D1*
X42475Y22812D1*
X42551Y22850D1*
X42628Y22927D1*
X42666Y23042D1*
Y23310D1*
X42263Y20195D2*
Y19752D1*
M02*
