G04 DipTrace 2.4.0.2*
%INpsv1.GTS*%
%MOIN*%
%ADD14C,0.1575*%
%ADD24R,0.0669X0.0669*%
%ADD25C,0.0669*%
%ADD36R,0.0748X0.0748*%
%ADD37C,0.0748*%
%ADD39C,0.1024*%
%ADD47C,0.0709*%
%ADD48C,0.0827*%
%ADD49R,0.0827X0.0827*%
%ADD50C,0.0679*%
%ADD52C,0.0679*%
%ADD54C,0.2047*%
%ADD56R,0.1654X0.1654*%
%ADD58R,0.0579X0.0579*%
%ADD60C,0.0579*%
%ADD64C,0.061*%
%ADD66R,0.061X0.061*%
%ADD68R,0.0709X0.0709*%
%FSLAX44Y44*%
G04*
G70*
G90*
G75*
G01*
%LNTopMask*%
%LPD*%
D36*
X19437Y36807D3*
D37*
X22390D3*
D36*
X19937Y10307D3*
D37*
X22890D3*
D47*
X21437Y30807D3*
D68*
X20437D3*
D47*
X21937Y15807D3*
D68*
X20937D3*
D66*
X29437Y30307D3*
D64*
X28453D3*
D66*
Y16807D3*
D64*
X29437D3*
D47*
X15937Y27807D3*
D68*
Y30807D3*
D47*
Y17807D3*
D68*
Y20807D3*
D47*
X12937Y22307D3*
D68*
Y25307D3*
D24*
X22437Y23307D3*
D25*
Y25307D3*
X19437D3*
Y23307D3*
D60*
X39437Y34307D3*
D58*
X38437D3*
D60*
X39937Y13307D3*
D58*
X38937D3*
D56*
X6984Y36854D3*
X12890D3*
D39*
X9937D3*
D56*
X6937Y10307D3*
X12843D3*
D39*
X9890D3*
D54*
X7437Y30937D3*
Y26937D3*
Y20437D3*
Y16437D3*
X38937Y27807D3*
Y23807D3*
Y19807D3*
D14*
X5906Y41339D3*
D52*
X35437Y37807D3*
D50*
X39437D3*
D52*
X39937Y9807D3*
D50*
X35937D3*
D49*
X29437Y36307D3*
D48*
X30437D3*
X31437D3*
D49*
Y11307D3*
D48*
X30437D3*
X29437D3*
D14*
X5906Y5906D3*
X41339D3*
Y41339D3*
M02*
